<svg width="1200" height="800" viewBox="0 0 1200 800" fill="none" xmlns="http://www.w3.org/2000/svg">
    <rect width="1200" height="800" fill="#F8F9FA"/>
    
    <!-- Interface Elements -->
    <rect x="40" y="40" width="300" height="720" rx="8" fill="white" stroke="#E5E7EB" stroke-width="1"/>
    <rect x="380" y="40" width="780" height="720" rx="8" fill="white" stroke="#E5E7EB" stroke-width="1"/>
    
    <!-- Left Panel -->
    <rect x="60" y="60" width="260" height="40" rx="4" fill="#F8F9FA"/>
    <rect x="75" y="75" width="140" height="10" rx="2" fill="#333333"/>
    
    <rect x="60" y="120" width="260" height="1" fill="#E5E7EB"/>
    
    <rect x="60" y="140" width="260" height="40" rx="4" fill="white" stroke="#E5E7EB" stroke-width="1"/>
    <rect x="75" y="155" width="140" height="10" rx="2" fill="#333333"/>
    
    <rect x="60" y="200" width="260" height="40" rx="4" fill="white" stroke="#E5E7EB" stroke-width="1"/>
    <rect x="75" y="215" width="120" height="10" rx="2" fill="#666666"/>
    
    <rect x="60" y="260" width="260" height="40" rx="4" fill="white" stroke="#E5E7EB" stroke-width="1"/>
    <rect x="75" y="275" width="110" height="10" rx="2" fill="#666666"/>
    
    <rect x="60" y="320" width="260" height="1" fill="#E5E7EB"/>
    
    <rect x="75" y="340" width="100" height="14" rx="2" fill="#333333"/>
    
    <rect x="60" y="370" width="260" height="60" rx="4" fill="white" stroke="#E5E7EB" stroke-width="1"/>
    <rect x="75" y="393" width="230" height="14" rx="2" fill="#666666"/>
    
    <rect x="60" y="450" width="260" height="60" rx="4" fill="white" stroke="#E5E7EB" stroke-width="1"/>
    <rect x="75" y="473" width="230" height="14" rx="2" fill="#666666"/>
    
    <rect x="60" y="530" width="260" height="60" rx="4" fill="white" stroke="#E5E7EB" stroke-width="1"/>
    <rect x="75" y="553" width="230" height="14" rx="2" fill="#666666"/>
    
    <rect x="60" y="620" width="130" height="40" rx="20" fill="#FF90BC"/>
    <rect x="100" y="635" width="50" height="10" rx="2" fill="white"/>
    
    <!-- Right Panel -->
    <rect x="400" y="60" width="740" height="60" rx="4" fill="#F8F9FA"/>
    <rect x="420" y="75" width="200" height="30" rx="4" fill="#333333"/>
    <rect x="640" y="85" width="100" height="10" rx="2" fill="#666666"/>
    <rect x="760" y="85" width="100" height="10" rx="2" fill="#666666"/>
    <rect x="880" y="85" width="100" height="10" rx="2" fill="#666666"/>
    <rect x="1000" y="75" width="120" height="30" rx="15" fill="#333333"/>
    <rect x="1045" y="85" width="30" height="10" rx="2" fill="white"/>
    
    <!-- Font Preview Area -->
    <rect x="420" y="150" width="700" height="60" rx="4" fill="white"/>
    <path d="M460 180 L500 180 L520 150 L540 210 L560 150 L580 210 L600 150 L620 210 L640 150 L660 180 L700 180" stroke="#FF90BC" stroke-width="4" stroke-linecap="round" stroke-linejoin="round"/>
    
    <!-- Font Samples -->
    <rect x="420" y="240" width="100" height="24" rx="2" fill="#333333"/>
    <rect x="420" y="280" width="700" height="80" rx="4" fill="white" stroke="#E5E7EB" stroke-width="1"/>
    <path d="M460 320 L480 300 L500 340 L520 300 L540 320" stroke="#333333" stroke-width="6" stroke-linecap="round" stroke-linejoin="round"/>
    <path d="M580 320 Q600 290, 620 320 Q640 350, 660 320" stroke="#333333" stroke-width="6" stroke-linecap="round" stroke-linejoin="round"/>
    <path d="M700 300 L700 340 M720 300 L740 340 L760 300" stroke="#333333" stroke-width="6" stroke-linecap="round" stroke-linejoin="round"/>
    
    <rect x="420" y="380" width="140" height="24" rx="2" fill="#333333"/>
    <rect x="420" y="420" width="700" height="80" rx="4" fill="white" stroke="#E5E7EB" stroke-width="1"/>
    <path d="M460 460 L520 460 M460 460 L460 500 L520 500" stroke="#333333" stroke-width="6" stroke-linecap="round" stroke-linejoin="round"/>
    <path d="M580 460 L580 500 M580 480 L620 480 M620 460 L620 500" stroke="#333333" stroke-width="6" stroke-linecap="round" stroke-linejoin="round"/>
    <path d="M660 460 Q690 460, 690 480 Q690 500, 660 500" stroke="#333333" stroke-width="6" stroke-linecap="round" stroke-linejoin="round"/>
    
    <rect x="420" y="520" width="200" height="24" rx="2" fill="#333333"/>
    <rect x="420" y="560" width="700" height="80" rx="4" fill="white" stroke="#E5E7EB" stroke-width="1"/>
    <rect x="460" y="580" width="60" height="40" rx="6" stroke="#333333" stroke-width="6"/>
    <circle cx="580" cy="600" r="20" stroke="#333333" stroke-width="6"/>
    <path d="M640 580 L680 620 M680 580 L640 620" stroke="#333333" stroke-width="6" stroke-linecap="round" stroke-linejoin="round"/>
    
    <rect x="420" y="660" width="220" height="40" rx="20" fill="#333333"/>
    <rect x="470" y="675" width="120" height="10" rx="2" fill="white"/>
    <rect x="660" y="660" width="220" height="40" rx="20" fill="white" stroke="#333333" stroke-width="2"/>
    <rect x="710" y="675" width="120" height="10" rx="2" fill="#333333"/>
</svg> 