<?xml version="1.0" encoding="UTF-8"?>
<svg width="256px" height="256px" viewBox="0 0 256 256" version="1.1" xmlns="http://www.w3.org/2000/svg">
    <path d="M128,216 C116.070833,216 105.166667,210.916667 97.5,201.583333 C76.75,174.166667 56,146.75 35.25,119.333333 C25.375,105.458333 20.291667,91.5833333 20.291667,77.7083333 C20.291667,47.2083333 44.625,22.875 75.125,22.875 C93.7916667,22.875 110.375,31.5833333 120.25,45.4583333 L128,56.375 L135.75,45.4583333 C145.625,31.5833333 162.208333,22.875 180.875,22.875 C211.375,22.875 235.708333,47.2083333 235.708333,77.7083333 C235.708333,91.5833333 230.625,105.458333 220.75,119.333333 C200,146.75 179.25,174.166667 158.5,201.583333 C150.833333,210.916667 139.929167,216 128,216 Z" fill="#FF5A5F"/>
</svg>
