<?xml version="1.0" encoding="UTF-8"?>
<svg width="256px" height="256px" viewBox="0 0 256 256" version="1.1" xmlns="http://www.w3.org/2000/svg">
    <path d="M128,128 C128,110.326667 142.326667,96 160,96 C177.673333,96 192,110.326667 192,128 C192,145.673333 177.673333,160 160,160 C142.326667,160 128,145.673333 128,128 Z" fill="#1ABCFE"/>
    <path d="M64,192 C64,174.326667 78.3266667,160 96,160 L128,160 L128,192 C128,209.673333 113.673333,224 96,224 C78.3266667,224 64,209.673333 64,192 Z" fill="#0ACF83"/>
    <path d="M128,32 L128,96 L160,96 C177.673333,96 192,81.6733333 192,64 C192,46.3266667 177.673333,32 160,32 L128,32 Z" fill="#FF7262"/>
    <path d="M64,64 C64,81.6733333 78.3266667,96 96,96 L128,96 L128,32 L96,32 C78.3266667,32 64,46.3266667 64,64 Z" fill="#F24E1E"/>
    <path d="M64,128 C64,145.673333 78.3266667,160 96,160 L128,160 L128,96 L96,96 C78.3266667,96 64,110.326667 64,128 Z" fill="#A259FF"/>
</svg>
