<?xml version="1.0" encoding="UTF-8"?>
<svg width="256px" height="256px" viewBox="0 0 256 256" version="1.1" xmlns="http://www.w3.org/2000/svg">
    <path d="M177.732394,60.3661972 L176.169014,60.9577465 C176.169014,60.9577465 164.408451,64.8169014 164.408451,64.8169014 C162.845070,58.8028169 159.549296,53.7887324 153.535211,53.7887324 L84.9577465,53.7887324 C81.0985915,53.7887324 77.8309859,56.4647887 77.2394366,60.3239437 L65.4788732,175.464789 C64.8873239,180.478873 68.7464789,184.929577 73.7605634,184.929577 L182.154930,184.929577 C187.169014,184.929577 191.028169,180.478873 190.436620,175.464789 L177.732394,60.3661972 Z M128,157.394366 C119.774648,157.394366 113.169014,150.788732 113.169014,142.563380 C113.169014,134.338028 119.774648,127.732394 128,127.732394 C136.225352,127.732394 142.830986,134.338028 142.830986,142.563380 C142.830986,150.788732 136.225352,157.394366 128,157.394366 Z" fill="#95BF47"/>
</svg>
