<?xml version="1.0" encoding="UTF-8"?>
<svg width="256px" height="256px" viewBox="0 0 256 256" version="1.1" xmlns="http://www.w3.org/2000/svg">
    <path d="M128,20 C68.2253521,20 20,68.2253521 20,128 C20,187.774648 68.2253521,236 128,236 C187.774648,236 236,187.774648 236,128 C236,68.2253521 187.774648,20 128,20 Z M174.915493,179.43662 C173.267606,182.169014 169.971831,183.253521 167.239437,181.605634 C144.676056,168.225352 115.746479,164.366197 75.4507042,172.676056 C72.1549296,173.267606 69.4225352,171.056338 68.8309859,167.760563 C68.2394366,164.464789 70.4507042,161.732394 73.7464789,161.140845 C117.394366,152.23944 149.697183,156.690141 174.915493,171.760563 C177.647887,173.408451 178.732394,176.704225 174.915493,179.43662 Z M187.183099,150.507042 C184.450704,153.830986 180.028169,155.478873 176.704225,152.746479 C150.781691,137.169014 111.887324,131.84507 73.7464789,141.929577 C69.8873239,142.521127 66.5915493,140.309859 66,136.450704 C65.4084507,132.591549 67.6197183,129.295775 71.4788732,128.704225 C114.070423,117.535211 156.197183,123.535211 185.535211,141.338028 C188.859155,143.478873 189.915493,147.183099 187.183099,150.507042 Z M188.23944,120.802817 C156.788732,102.535211 98.0140845,101.450704 65.4084507,112.619718 C60.9859155,114.267606 56.5633803,111.535211 54.9154931,107.112676 C53.2676056,102.690141 56,98.2676056 60.4225352,96.6197183 C98.0140845,83.8309859 162.788732,85.4788732 199.408451,106.521127 C203.267606,108.760563 204.943662,113.774648 202.704225,117.633803 C200.464789,120.802817 195.450704,122.478873 188.23944,120.802817 Z" fill="#1DB954"/>
</svg>
