<?xml version="1.0" encoding="UTF-8"?>
<svg width="256px" height="256px" viewBox="0 0 256 256" version="1.1" xmlns="http://www.w3.org/2000/svg">
    <path d="M201.944,66.112 L201.944,153.872 L170.296,185.52 L134.408,185.52 L107,212.928 L79.592,212.928 L79.592,185.52 L43.704,185.52 L43.704,66.112 L201.944,66.112 Z M188.056,72.888 L57.592,72.888 L57.592,171.632 L93.48,171.632 L93.48,199.04 L120.888,171.632 L163.52,171.632 L188.056,147.096 L188.056,72.888 Z" fill="#6441A4"/>
    <path d="M163.52,105.872 L163.52,99.096 L177.408,99.096 L177.408,105.872 L163.52,105.872 Z M124.776,105.872 L124.776,99.096 L138.664,99.096 L138.664,105.872 L124.776,105.872 Z" fill="#6441A4"/>
</svg>
