<?xml version="1.0" encoding="UTF-8"?>
<svg width="256px" height="256px" viewBox="0 0 256 256" version="1.1" xmlns="http://www.w3.org/2000/svg">
    <path d="M128,20 C68.2253521,20 20,68.2253521 20,128 C20,187.774648 68.2253521,236 128,236 C187.774648,236 236,187.774648 236,128 C236,68.2253521 187.774648,20 128,20 Z M128,208 C83.8169014,208 48,172.183099 48,128 C48,83.8169014 83.8169014,48 128,48 C172.183099,48 208,83.8169014 208,128 C208,172.183099 172.183099,208 128,208 Z M128,76 C99.2676056,76 76,99.2676056 76,128 C76,156.732394 99.2676056,180 128,180 C156.732394,180 180,156.732394 180,128 C180,99.2676056 156.732394,76 128,76 Z" fill="#000000"/>
</svg>
